<svg width="32" height="32" viewBox="0 0 32 32" fill="none" xmlns="http://www.w3.org/2000/svg">
<path d="M10 9C9.73478 9 9.48043 8.89464 9.29289 8.70711C9.10536 8.51957 9 8.26522 9 8V4C9 3.73478 9.10536 3.48043 9.29289 3.29289C9.48043 3.10536 9.73478 3 10 3C10.2652 3 10.5196 3.10536 10.7071 3.29289C10.8946 3.48043 11 3.73478 11 4V8C11 8.26522 10.8946 8.51957 10.7071 8.70711C10.5196 8.89464 10.2652 9 10 9ZM22 9C21.7348 9 21.4804 8.89464 21.2929 8.70711C21.1054 8.51957 21 8.26522 21 8V4C21 3.73478 21.1054 3.48043 21.2929 3.29289C21.4804 3.10536 21.7348 3 22 3C22.2652 3 22.5196 3.10536 22.7071 3.29289C22.8946 3.48043 23 3.73478 23 4V8C23 8.26522 22.8946 8.51957 22.7071 8.70711C22.5196 8.89464 22.2652 9 22 9Z" fill="#7D7E7C"/>
<path d="M26 29H6C4.346 29 3 27.654 3 26V8C3 6.346 4.346 5 6 5H26C27.654 5 29 6.346 29 8V26C29 27.654 27.654 29 26 29ZM6 7C5.73478 7 5.48043 7.10536 5.29289 7.29289C5.10536 7.48043 5 7.73478 5 8V26C5 26.2652 5.10536 26.5196 5.29289 26.7071C5.48043 26.8946 5.73478 27 6 27H26C26.2652 27 26.5196 26.8946 26.7071 26.7071C26.8946 26.5196 27 26.2652 27 26V8C27 7.73478 26.8946 7.48043 26.7071 7.29289C26.5196 7.10536 26.2652 7 26 7H6Z" fill="#7D7E7C"/>
<path d="M28 13H4C3.73478 13 3.48043 12.8946 3.29289 12.7071C3.10536 12.5196 3 12.2652 3 12C3 11.7348 3.10536 11.4804 3.29289 11.2929C3.48043 11.1054 3.73478 11 4 11H28C28.2652 11 28.5196 11.1054 28.7071 11.2929C28.8946 11.4804 29 11.7348 29 12C29 12.2652 28.8946 12.5196 28.7071 12.7071C28.5196 12.8946 28.2652 13 28 13ZM11 15H13V17H11V15ZM15 15H17V17H15V15ZM19 15H21V17H19V15ZM23 15H25V17H23V15ZM7 19H9V21H7V19ZM11 19H13V21H11V19ZM15 19H17V21H15V19ZM19 19H21V21H19V19ZM23 19H25V21H23V19ZM7 23H9V25H7V23ZM11 23H13V25H11V23ZM15 23H17V25H15V23Z" fill="#7D7E7C"/>
</svg>
