<svg width="16" height="13" viewBox="0 0 16 13" fill="none" xmlns="http://www.w3.org/2000/svg">
<g clip-path="url(#clip0_1608_7235)">
<path fill-rule="evenodd" clip-rule="evenodd" d="M0.233754 0.43244C0.0836752 0.665901 0 0.975571 0 1.29753C0 1.61949 0.0836752 1.92916 0.233754 2.16262L6.84495 12.2825C6.99068 12.5091 7.16608 12.6894 7.36048 12.8127C7.55487 12.936 7.76421 12.9995 7.97575 12.9995C8.1873 12.9995 8.39663 12.936 8.59103 12.8127C8.78543 12.6894 8.96082 12.5091 9.10655 12.2825L15.7666 2.08935C16.0746 1.61662 16.0786 0.850803 15.7746 0.370985C15.7021 0.254819 15.6143 0.161886 15.5166 0.0979576C15.4188 0.0340281 15.3132 0.000468254 15.2063 -0.000639915C15.0994 -0.00174809 14.9935 0.0296192 14.8951 0.0915146C14.7968 0.153411 14.7081 0.244514 14.6346 0.359167L8.54095 9.68726C8.46808 9.80062 8.38036 9.89088 8.28313 9.95257C8.18589 10.0142 8.08117 10.0461 7.97535 10.0461C7.86953 10.0461 7.76482 10.0142 7.66758 9.95257C7.57035 9.89088 7.48262 9.80062 7.40975 9.68726L1.36415 0.433621C1.29135 0.320297 1.2037 0.230051 1.10653 0.168381C1.00936 0.106711 0.904711 0.0749073 0.798954 0.0749073C0.693196 0.0749073 0.588546 0.106711 0.491377 0.168381C0.394208 0.230051 0.306554 0.319116 0.233754 0.43244Z" fill="#7D7E7C"/>
</g>
<defs>
<clipPath id="clip0_1608_7235">
<rect width="13" height="16" fill="white" transform="matrix(0 -1 1 0 0 13)"/>
</clipPath>
</defs>
</svg>
