<svg width="16" height="13" viewBox="0 0 16 13" fill="none" xmlns="http://www.w3.org/2000/svg">
<g clip-path="url(#clip0_1608_7233)">
<path fill-rule="evenodd" clip-rule="evenodd" d="M15.7662 12.5676C15.9163 12.3341 16 12.0244 16 11.7025C16 11.3805 15.9163 11.0708 15.7662 10.8374L9.15505 0.71747C9.00932 0.49094 8.83392 0.310563 8.63952 0.187306C8.44513 0.0640491 8.23579 0.000488281 8.02425 0.000488281C7.8127 0.000488281 7.60337 0.0640491 7.40897 0.187306C7.21457 0.310563 7.03918 0.49094 6.89345 0.71747L0.233445 10.9107C-0.0745544 11.3834 -0.0785542 12.1492 0.225446 12.629C0.29787 12.7452 0.385687 12.8381 0.483442 12.902C0.581198 12.966 0.686806 12.9995 0.793709 13.0006C0.900612 13.0017 1.00653 12.9704 1.10488 12.9085C1.20323 12.8466 1.29193 12.7555 1.36545 12.6408L7.45905 3.31274C7.53192 3.19938 7.61964 3.10912 7.71687 3.04743C7.81411 2.98575 7.91883 2.95394 8.02465 2.95394C8.13047 2.95394 8.23518 2.98575 8.33242 3.04743C8.42965 3.10912 8.51738 3.19938 8.59025 3.31274L14.6358 12.5664C14.7086 12.6797 14.7963 12.7699 14.8935 12.8316C14.9906 12.8933 15.0953 12.9251 15.201 12.9251C15.3068 12.9251 15.4115 12.8933 15.5086 12.8316C15.6058 12.7699 15.6934 12.6809 15.7662 12.5676Z" fill="#7D7E7C"/>
</g>
<defs>
<clipPath id="clip0_1608_7233">
<rect width="13" height="16" fill="white" transform="matrix(0 1 -1 0 16 0)"/>
</clipPath>
</defs>
</svg>
